<svg id="home-white-18dp" xmlns="http://www.w3.org/2000/svg" width="50" height="50" viewBox="0 0 50 50">
  <path id="Trazado_2115" data-name="Trazado 2115" d="M0,0H50V50H0Z" fill="none"/>
  <path id="Trazado_2116" data-name="Trazado 2116" d="M20.171,43.439V30.633h9.652V43.439A2.5,2.5,0,0,0,32.236,46h7.239a2.5,2.5,0,0,0,2.413-2.561V25.511h4.1a1.282,1.282,0,0,0,.8-2.228L26.614,4A2.328,2.328,0,0,0,23.38,4L3.207,23.283A1.288,1.288,0,0,0,4,25.511h4.1V43.439A2.5,2.5,0,0,0,10.519,46h7.239A2.5,2.5,0,0,0,20.171,43.439Z" fill="#fff"/>
</svg>
